<svg width="31" height="28" viewBox="0 0 31 28" fill="none" xmlns="http://www.w3.org/2000/svg">
<path d="M20.3438 0C14.8929 0 10.419 3.75816 10.073 8.49194C4.88183 8.75233 0 12.4956 0 17.5586C0 19.6744 0.83725 21.7245 2.36133 23.3489C2.66288 24.592 2.29676 25.9096 1.38832 26.818C1.21519 26.9911 1.1634 27.2515 1.25706 27.4779C1.35072 27.704 1.57138 27.8516 1.81641 27.8516C3.54317 27.8516 5.20727 27.1744 6.44375 25.9812C7.6483 26.3918 9.21992 26.6406 10.6562 26.6406C16.1064 26.6406 20.5798 22.8834 20.9268 18.1506C22.1945 18.0943 23.513 17.8601 24.5563 17.5047C25.7927 18.6979 27.4568 19.375 29.1836 19.375C29.4286 19.375 29.6493 19.2274 29.7429 19.0013C29.8366 18.775 29.7848 18.5146 29.6117 18.3414C28.7032 17.433 28.3371 16.1154 28.6387 14.8723C30.1628 13.2479 31 11.1979 31 9.08203C31 3.82131 25.7421 0 20.3438 0ZM10.6562 25.4297C9.22725 25.4297 7.59887 25.1492 6.50808 24.7152C6.27441 24.622 6.00739 24.6833 5.83733 24.8689C5.10628 25.6681 4.15574 26.2253 3.12006 26.4815C3.69076 25.3881 3.83645 24.0991 3.48925 22.8777C3.46181 22.7815 3.41096 22.6935 3.34119 22.6218C1.96754 21.207 1.21094 19.4088 1.21094 17.5586C1.21094 13.2919 5.53625 9.6875 10.6562 9.6875C15.491 9.6875 19.7383 13.0495 19.7383 17.5586C19.7383 21.8988 15.6641 25.4297 10.6562 25.4297ZM27.6588 14.1453C27.589 14.2172 27.5382 14.3051 27.5107 14.4012C27.1636 15.6225 27.3092 16.9115 27.8799 18.0049C26.8443 17.749 25.8937 17.1915 25.1627 16.3924C24.9926 16.2069 24.7256 16.1454 24.4919 16.2386C23.5466 16.6147 22.198 16.8751 20.9249 16.938C20.7479 14.6483 19.6058 12.4963 17.6532 10.8984H25.5508C25.8852 10.8984 26.1562 10.6274 26.1562 10.293C26.1562 9.95854 25.8852 9.6875 25.5508 9.6875H15.793C14.4187 8.9879 12.8754 8.57992 11.287 8.4943C11.6349 4.42773 15.5641 1.21094 20.3438 1.21094C25.4637 1.21094 29.7891 4.81537 29.7891 9.08203C29.7891 10.9323 29.0325 12.7305 27.6588 14.1453Z" fill="#37373F"/>
</svg>
